# xmcd
#
# Track frame offsets: 
#        150
#        12368
#        24114
#        36929
#        54169
#        65803
#        76685
#        101341
#        115107
#        126539
#        137333
#        147999
#        161436
#        177210
#        211069
#        226889
#        237115
#        247109
#        257637
#        269979
#
# Disc length: 3812 seconds
#
# Revision: 0
# Processed by: cddbd v1.5.1PL0 Copyright (c) Steve Scherf et al.
# Submitted via: ExactAudioCopy v0.95a5
#
DISCID=0d0ee214
DTITLE=John Lee Hooker - Real Gold
DYEAR=2003
DGENRE=Blues
TTITLE0=I'm In The Mood
TTITLE1=Good Rockin' Mama
TTITLE2=Baby Lee
TTITLE3=Blues Before Sunrise
TTITLE4=Boogie Chillen 2
TTITLE5=Bottle Up And Go
TTITLE6=Sugar Mama
TTITLE7=Hobo Blues
TTITLE8=Little Wheel
TTITLE9=No Shoes
TTITLE10=Maudie
TTITLE11=Trouble Blues
TTITLE12=It Serves Me Right To Suffer
TTITLE13=Tupelo
TTITLE14=Dirty Ground Dog
TTITLE15=Big Legs Tight Skirt
TTITLE16=Want Ad Blues
TTITLE17=Dusty Road
TTITLE18=Crawling King Snake
TTITLE19=My First Wife Left Me
EXTD=
EXTT0=
EXTT1=
EXTT2=
EXTT3=
EXTT4=
EXTT5=
EXTT6=
EXTT7=
EXTT8=
EXTT9=
EXTT10=
EXTT11=
EXTT12=
EXTT13=
EXTT14=
EXTT15=
EXTT16=
EXTT17=
EXTT18=
EXTT19=
PLAYORDER=
